<svg width="19" height="19" viewBox="0 0 19 19" fill="none" xmlns="http://www.w3.org/2000/svg">
<path d="M2.37516 7.12516C2.58513 7.12516 2.78649 7.04175 2.93496 6.89329C3.08342 6.74482 3.16683 6.54346 3.16683 6.3335V3.9585C3.16683 3.74853 3.25024 3.54717 3.3987 3.3987C3.54717 3.25024 3.74853 3.16683 3.9585 3.16683H6.3335C6.54346 3.16683 6.74482 3.08342 6.89329 2.93496C7.04175 2.78649 7.12516 2.58513 7.12516 2.37516C7.12516 2.1652 7.04175 1.96384 6.89329 1.81537C6.74482 1.6669 6.54346 1.5835 6.3335 1.5835H3.9585C3.32861 1.5835 2.72452 1.83372 2.27912 2.27912C1.83372 2.72452 1.5835 3.32861 1.5835 3.9585V6.3335C1.5835 6.54346 1.6669 6.74482 1.81537 6.89329C1.96384 7.04175 2.1652 7.12516 2.37516 7.12516ZM6.3335 15.8335H3.9585C3.74853 15.8335 3.54717 15.7501 3.3987 15.6016C3.25024 15.4532 3.16683 15.2518 3.16683 15.0418V12.6668C3.16683 12.4569 3.08342 12.2555 2.93496 12.107C2.78649 11.9586 2.58513 11.8752 2.37516 11.8752C2.1652 11.8752 1.96384 11.9586 1.81537 12.107C1.6669 12.2555 1.5835 12.4569 1.5835 12.6668V15.0418C1.5835 15.6717 1.83372 16.2758 2.27912 16.7212C2.72452 17.1666 3.32861 17.4168 3.9585 17.4168H6.3335C6.54346 17.4168 6.74482 17.3334 6.89329 17.185C7.04175 17.0365 7.12516 16.8351 7.12516 16.6252C7.12516 16.4152 7.04175 16.2138 6.89329 16.0654C6.74482 15.9169 6.54346 15.8335 6.3335 15.8335ZM9.50016 6.3335C8.87385 6.3335 8.26161 6.51922 7.74086 6.86718C7.2201 7.21513 6.81422 7.7097 6.57454 8.28833C6.33487 8.86696 6.27216 9.50367 6.39434 10.1179C6.51653 10.7322 6.81812 11.2965 7.26099 11.7393C7.70386 12.1822 8.2681 12.4838 8.88238 12.606C9.49665 12.7282 10.1334 12.6655 10.712 12.4258C11.2906 12.1861 11.7852 11.7802 12.1331 11.2595C12.4811 10.7387 12.6668 10.1265 12.6668 9.50016C12.6668 8.66031 12.3332 7.85486 11.7393 7.26099C11.1455 6.66713 10.34 6.3335 9.50016 6.3335ZM9.50016 11.0835C9.18701 11.0835 8.88089 10.9906 8.62051 10.8167C8.36013 10.6427 8.15719 10.3954 8.03735 10.1061C7.91751 9.81676 7.88616 9.49841 7.94725 9.19127C8.00835 8.88413 8.15914 8.60201 8.38058 8.38058C8.60201 8.15914 8.88413 8.00835 9.19127 7.94725C9.49841 7.88616 9.81676 7.91751 10.1061 8.03735C10.3954 8.15719 10.6427 8.36013 10.8167 8.62051C10.9906 8.88089 11.0835 9.18701 11.0835 9.50016C11.0835 9.92009 10.9167 10.3228 10.6197 10.6197C10.3228 10.9167 9.92009 11.0835 9.50016 11.0835ZM15.0418 1.5835H12.6668C12.4569 1.5835 12.2555 1.6669 12.107 1.81537C11.9586 1.96384 11.8752 2.1652 11.8752 2.37516C11.8752 2.58513 11.9586 2.78649 12.107 2.93496C12.2555 3.08342 12.4569 3.16683 12.6668 3.16683H15.0418C15.2518 3.16683 15.4532 3.25024 15.6016 3.3987C15.7501 3.54717 15.8335 3.74853 15.8335 3.9585V6.3335C15.8335 6.54346 15.9169 6.74482 16.0654 6.89329C16.2138 7.04175 16.4152 7.12516 16.6252 7.12516C16.8351 7.12516 17.0365 7.04175 17.185 6.89329C17.3334 6.74482 17.4168 6.54346 17.4168 6.3335V3.9585C17.4168 3.32861 17.1666 2.72452 16.7212 2.27912C16.2758 1.83372 15.6717 1.5835 15.0418 1.5835ZM16.6252 11.8752C16.4152 11.8752 16.2138 11.9586 16.0654 12.107C15.9169 12.2555 15.8335 12.4569 15.8335 12.6668V15.0418C15.8335 15.2518 15.7501 15.4532 15.6016 15.6016C15.4532 15.7501 15.2518 15.8335 15.0418 15.8335H12.6668C12.4569 15.8335 12.2555 15.9169 12.107 16.0654C11.9586 16.2138 11.8752 16.4152 11.8752 16.6252C11.8752 16.8351 11.9586 17.0365 12.107 17.185C12.2555 17.3334 12.4569 17.4168 12.6668 17.4168H15.0418C15.6717 17.4168 16.2758 17.1666 16.7212 16.7212C17.1666 16.2758 17.4168 15.6717 17.4168 15.0418V12.6668C17.4168 12.4569 17.3334 12.2555 17.185 12.107C17.0365 11.9586 16.8351 11.8752 16.6252 11.8752Z" fill="#F9F9F9"/>
</svg>
