<svg width="24" height="24" viewBox="0 0 24 24" fill="none" xmlns="http://www.w3.org/2000/svg">
<path fill-rule="evenodd" clip-rule="evenodd" d="M11.4699 3.47007C11.6105 3.32962 11.8012 3.25073 11.9999 3.25073C12.1987 3.25073 12.3893 3.32962 12.5299 3.47007L18.5299 9.47007C18.6036 9.53873 18.6627 9.62153 18.7037 9.71353C18.7447 9.80553 18.7667 9.90485 18.7685 10.0056C18.7703 10.1063 18.7518 10.2063 18.714 10.2997C18.6763 10.3931 18.6202 10.4779 18.5489 10.5491C18.4777 10.6203 18.3929 10.6765 18.2995 10.7142C18.2061 10.7519 18.1061 10.7704 18.0054 10.7687C17.9047 10.7669 17.8054 10.7448 17.7134 10.7039C17.6214 10.6629 17.5386 10.6038 17.4699 10.5301L12.7499 5.81007V20.0001C12.7499 20.199 12.6709 20.3898 12.5302 20.5304C12.3896 20.6711 12.1988 20.7501 11.9999 20.7501C11.801 20.7501 11.6102 20.6711 11.4696 20.5304C11.3289 20.3898 11.2499 20.199 11.2499 20.0001V5.81007L6.52991 10.5301C6.46125 10.6038 6.37845 10.6629 6.28645 10.7039C6.19445 10.7448 6.09513 10.7669 5.99443 10.7687C5.89373 10.7704 5.7937 10.7519 5.70031 10.7142C5.60692 10.6765 5.52209 10.6203 5.45087 10.5491C5.37965 10.4779 5.32351 10.3931 5.28579 10.2997C5.24807 10.2063 5.22954 10.1063 5.23132 10.0056C5.23309 9.90485 5.25514 9.80553 5.29613 9.71353C5.33712 9.62153 5.39622 9.53873 5.46991 9.47007L11.4699 3.47007Z" fill="black"/>
</svg>
