<svg width="20" height="20" viewBox="0 0 20 20" fill="none" xmlns="http://www.w3.org/2000/svg">
<path d="M19.375 7.85156C19.375 7.26562 19.243 7.07031 18.5938 7.07031H18.0078V5.3125C18.0078 4.15832 17.7948 3.94531 16.6406 3.94531H1.99219C0.838007 3.94531 0.625 4.15832 0.625 5.3125V14.6875C0.625 15.8417 0.838007 16.0547 1.99219 16.0547H16.6406C17.7948 16.0547 18.0078 15.8417 18.0078 14.6875V12.9297H18.5938C19.243 12.9297 19.375 12.7344 19.375 12.1484V7.85156ZM16.6479 5.97289C16.6471 6.15516 16.6406 6.38672 16.6406 6.67969V13.3203C16.6406 14.8828 16.8359 14.6875 15.2734 14.6875H3.35938C1.79688 14.6875 1.99219 14.8828 1.99219 13.3203V6.67969C1.99219 5.11719 1.79688 5.3125 3.35938 5.3125H15.2734C16.543 5.3125 16.6517 5.1832 16.648 5.97289H16.6479ZM12.5391 6.28906C12.5391 6.07266 12.3648 5.89844 12.1484 5.89844H10C9.78359 5.89844 9.60938 6.07266 9.60938 6.28906V13.7109C9.60938 13.9273 9.78359 14.1016 10 14.1016H12.1484C12.3648 14.1016 12.5391 13.9273 12.5391 13.7109V6.28906ZM9.02344 6.28906C9.02344 6.07266 8.84922 5.89844 8.63281 5.89844H6.48438C6.26797 5.89844 6.09375 6.07266 6.09375 6.28906V13.7109C6.09375 13.9273 6.26797 14.1016 6.48438 14.1016H8.63281C8.84922 14.1016 9.02344 13.9273 9.02344 13.7109V6.28906ZM5.50781 6.28906C5.50781 6.07266 5.33359 5.89844 5.11719 5.89844H2.96875C2.75234 5.89844 2.57812 6.07266 2.57812 6.28906V13.7109C2.57812 13.9273 2.75234 14.1016 2.96875 14.1016H5.11719C5.33359 14.1016 5.50781 13.9273 5.50781 13.7109V6.28906Z" fill="#F9F9F9"/>
</svg>
