<svg width="25" height="25" viewBox="0 0 25 25" fill="none" xmlns="http://www.w3.org/2000/svg">
<path d="M24.2188 9.81445C24.2188 9.08203 24.0537 8.83789 23.2422 8.83789H22.5098V6.64062C22.5098 5.1979 22.2435 4.93164 20.8008 4.93164H2.49023C1.04751 4.93164 0.78125 5.1979 0.78125 6.64062V18.3594C0.78125 19.8021 1.04751 20.0684 2.49023 20.0684H20.8008C22.2435 20.0684 22.5098 19.8021 22.5098 18.3594V16.1621H23.2422C24.0537 16.1621 24.2188 15.918 24.2188 15.1855V9.81445ZM20.8099 7.46611C20.8089 7.69395 20.8008 7.9834 20.8008 8.34961V16.6504C20.8008 18.6035 21.0449 18.3594 19.0918 18.3594H4.19922C2.24609 18.3594 2.49023 18.6035 2.49023 16.6504V8.34961C2.49023 6.39648 2.24609 6.64062 4.19922 6.64062H19.0918C20.6787 6.64062 20.8146 6.479 20.81 7.46611H20.8099ZM15.6738 7.86133C15.6738 7.59082 15.4561 7.37305 15.1855 7.37305H12.5C12.2295 7.37305 12.0117 7.59082 12.0117 7.86133V17.1387C12.0117 17.4092 12.2295 17.627 12.5 17.627H15.1855C15.4561 17.627 15.6738 17.4092 15.6738 17.1387V7.86133ZM11.2793 7.86133C11.2793 7.59082 11.0615 7.37305 10.791 7.37305H8.10547C7.83496 7.37305 7.61719 7.59082 7.61719 7.86133V17.1387C7.61719 17.4092 7.83496 17.627 8.10547 17.627H10.791C11.0615 17.627 11.2793 17.4092 11.2793 17.1387V7.86133ZM6.88477 7.86133C6.88477 7.59082 6.66699 7.37305 6.39648 7.37305H3.71094C3.44043 7.37305 3.22266 7.59082 3.22266 7.86133V17.1387C3.22266 17.4092 3.44043 17.627 3.71094 17.627H6.39648C6.66699 17.627 6.88477 17.4092 6.88477 17.1387V7.86133Z" fill="#121212"/>
</svg>
