<svg width="24" height="24" viewBox="0 0 24 24" fill="none" xmlns="http://www.w3.org/2000/svg">
<path fill-rule="evenodd" clip-rule="evenodd" d="M20.207 6.79303C20.3945 6.98056 20.4998 7.23487 20.4998 7.50003C20.4998 7.76519 20.3945 8.0195 20.207 8.20703L10.707 17.707C10.5195 17.8945 10.2652 17.9998 10 17.9998C9.73488 17.9998 9.48057 17.8945 9.29304 17.707L4.79304 13.207C4.61088 13.0184 4.51009 12.7658 4.51237 12.5036C4.51465 12.2414 4.61981 11.9906 4.80522 11.8052C4.99063 11.6198 5.24144 11.5146 5.50364 11.5124C5.76584 11.5101 6.01844 11.6109 6.20704 11.793L10 15.586L18.793 6.79303C18.9806 6.60556 19.2349 6.50024 19.5 6.50024C19.7652 6.50024 20.0195 6.60556 20.207 6.79303Z" fill="black"/>
</svg>
