<svg width="15" height="11" viewBox="0 0 15 11" fill="none" xmlns="http://www.w3.org/2000/svg">
<path d="M4.76821 8.95757L13.5702 0.156568C13.6675 0.059235 13.7822 0.00723485 13.9142 0.000568181C14.0462 -0.00609849 14.1672 0.0459016 14.2772 0.156568C14.3872 0.267235 14.4425 0.386235 14.4432 0.513568C14.4439 0.640901 14.3889 0.759568 14.2782 0.869568L5.33421 9.81957C5.17221 9.98157 4.98355 10.0626 4.76821 10.0626C4.55288 10.0626 4.36421 9.98157 4.20221 9.81957L0.152212 5.76957C0.0548784 5.67224 0.00421176 5.55657 0.000211765 5.42257C-0.00378824 5.28857 0.0488784 5.16657 0.158212 5.05657C0.267545 4.94657 0.386545 4.89157 0.515212 4.89157C0.643878 4.89157 0.762878 4.94657 0.872212 5.05657L4.76821 8.95757Z" fill="black"/>
</svg>
