<svg width="34" height="34" viewBox="0 0 34 34" fill="none" xmlns="http://www.w3.org/2000/svg">
<path d="M21.8353 11.7456H22.6697V17.2521H21.8353V11.7456ZM16.9577 21.9994H16.9478L15.8342 19.1434H15.0253V22.8607H15.5297V19.7526H15.5396L16.7692 22.8607H17.0993L18.3332 19.7526H18.3446V22.8607H18.8645V19.1434H18.0556L16.9577 21.9994ZM10.6946 19.5996H11.8874V22.8607H12.4073V19.5996H13.6002V19.1434H10.6946V19.5996ZM27.2852 21.0616C27.1825 20.9854 27.0701 20.9234 26.9508 20.8774C26.8309 20.8317 26.7095 20.7901 26.5868 20.7527L26.3034 20.655C26.2223 20.6268 26.1451 20.5883 26.0739 20.5402C26.012 20.4963 25.9594 20.4405 25.9195 20.3759C25.8786 20.3019 25.8585 20.2182 25.8614 20.1336C25.8591 20.0437 25.8806 19.9548 25.9238 19.8758C25.9646 19.8053 26.0202 19.7444 26.0867 19.6973C26.1537 19.6498 26.2285 19.6143 26.3077 19.5925C26.3869 19.5699 26.469 19.5589 26.5513 19.5599C26.6915 19.5568 26.8302 19.5885 26.9551 19.652C27.0657 19.7091 27.1624 19.7899 27.2384 19.8886L27.5869 19.55C27.4674 19.4192 27.319 19.3183 27.1534 19.2553C26.9691 19.1819 26.7724 19.1444 26.574 19.1448C26.4262 19.1451 26.279 19.1646 26.1362 19.2029C25.9965 19.2381 25.8648 19.2997 25.7481 19.3842C25.6321 19.4674 25.5355 19.5747 25.4648 19.6987C25.3999 19.8328 25.3641 19.9791 25.3594 20.1279C25.3548 20.2768 25.3815 20.425 25.4378 20.5629C25.4872 20.6709 25.5586 20.7675 25.6475 20.8462C25.7378 20.9195 25.8368 20.9813 25.9422 21.0304C26.0509 21.0785 26.1626 21.1196 26.2765 21.1536C26.3898 21.1895 26.497 21.2249 26.5981 21.2599C26.6915 21.2929 26.7813 21.3356 26.8658 21.3874C26.94 21.4334 27.0026 21.496 27.0486 21.5701C27.0954 21.6509 27.1185 21.7432 27.1152 21.8365C27.1165 21.9312 27.0941 22.0247 27.05 22.1085C27.0089 22.1825 26.9518 22.2464 26.8828 22.2955C26.8145 22.3456 26.7377 22.383 26.6562 22.406C26.5748 22.4279 26.4911 22.4393 26.4068 22.44C26.2481 22.4414 26.0916 22.4024 25.9521 22.3266C25.8179 22.2552 25.7031 22.1521 25.6178 22.0263L25.2324 22.3507C25.3689 22.5214 25.547 22.654 25.7495 22.7361C25.9548 22.8209 26.1748 22.8647 26.3969 22.865C26.5514 22.866 26.7051 22.844 26.8531 22.7998C26.9955 22.7604 27.1288 22.6935 27.2455 22.6029C27.3596 22.5127 27.4524 22.3986 27.5175 22.2686C27.5886 22.1197 27.6235 21.9561 27.6195 21.7911C27.6253 21.64 27.5927 21.4899 27.5246 21.3548C27.4678 21.2403 27.386 21.1401 27.2852 21.0616ZM30.2559 13.4399L29.1693 15.8822L28.0828 13.4399H27.1718L28.7146 16.9051L28.6834 16.9731L28.6721 17L28.3335 17.7508C28.2852 17.8584 28.1962 17.9426 28.086 17.9848C27.9759 18.027 27.8535 18.0239 27.7456 17.9761L27.6266 17.9236L27.3943 18.4464L27.2894 18.6787L27.5728 18.8076C27.8344 18.9233 28.1311 18.9307 28.3982 18.8283C28.6652 18.7258 28.8808 18.5218 28.9979 18.2608L31.1668 13.4399H30.2559ZM17.0611 14.4953C17.0603 13.7656 16.77 13.0661 16.254 12.5503C15.7379 12.0344 15.0382 11.7445 14.3085 11.7441H12.3252V17.2451H14.3085C15.0379 17.2447 15.7374 16.9549 16.2535 16.4394C16.7695 15.9239 17.06 15.2247 17.0611 14.4953ZM13.7418 16.4121H13.1582V12.5786H14.3085C14.8169 12.5786 15.3044 12.7805 15.6638 13.14C16.0233 13.4994 16.2252 13.987 16.2252 14.4953C16.2252 15.0037 16.0233 15.4912 15.6638 15.8507C15.3044 16.2101 14.8169 16.4121 14.3085 16.4121H13.7418ZM25.2948 13.4399C24.9049 13.4387 24.5243 13.5585 24.2053 13.7827V11.7456H23.3752V17.2521H24.211V16.9079C24.4564 17.0791 24.7386 17.1901 25.0349 17.232C25.3311 17.2738 25.6331 17.2453 25.9163 17.1488C26.1995 17.0522 26.4559 16.8903 26.6649 16.6762C26.8739 16.4621 27.0296 16.2018 27.1192 15.9164C27.2089 15.6309 27.2301 15.3284 27.1811 15.0332C27.1321 14.738 27.0142 14.4586 26.8371 14.2174C26.66 13.9763 26.4286 13.7802 26.1616 13.6451C25.8946 13.51 25.5996 13.4397 25.3004 13.4399H25.2948ZM25.2948 16.4871C25.0534 16.4871 24.8182 16.411 24.6226 16.2695C24.427 16.1281 24.281 15.9287 24.2053 15.6995C24.1262 15.4647 24.1262 15.2104 24.2053 14.9756C24.2721 14.7748 24.393 14.5964 24.5548 14.46C24.7165 14.3236 24.9128 14.2345 25.1219 14.2025C25.3311 14.1705 25.545 14.1969 25.7401 14.2788C25.9352 14.3607 26.1039 14.4948 26.2276 14.6665C26.3513 14.8381 26.4252 15.0406 26.4412 15.2516C26.4571 15.4625 26.4145 15.6738 26.318 15.8621C26.2216 16.0504 26.075 16.2084 25.8944 16.3187C25.7138 16.429 25.5063 16.4873 25.2948 16.4871ZM23.5338 19.6562C23.3616 19.4935 23.1596 19.3656 22.9388 19.2794C22.4562 19.1006 21.9255 19.1006 21.4428 19.2794C21.2236 19.366 21.0231 19.494 20.8521 19.6562C20.6829 19.822 20.5502 20.0213 20.4625 20.2413C20.2756 20.7264 20.2756 21.2636 20.4625 21.7486C20.5497 21.9702 20.6824 22.171 20.8521 22.338C21.0223 22.5033 21.2229 22.6341 21.4428 22.7233C21.925 22.9046 22.4567 22.9046 22.9388 22.7233C23.1602 22.6346 23.3623 22.5037 23.5338 22.338C23.701 22.1686 23.8338 21.9685 23.9248 21.7486C24.1158 21.2644 24.1158 20.7256 23.9248 20.2413C23.8367 20.0211 23.7035 19.8218 23.5338 19.6562ZM23.4389 21.5517C23.3778 21.718 23.286 21.8712 23.1683 22.0036C23.049 22.1324 22.9043 22.2351 22.7433 22.3054C22.5686 22.381 22.3798 22.4187 22.1894 22.4159C22.0003 22.4203 21.8125 22.3826 21.6397 22.3054C21.4788 22.2351 21.3341 22.1324 21.2148 22.0036C21.0976 21.8711 21.0063 21.7178 20.9456 21.5517C20.8834 21.3736 20.8514 21.1864 20.8507 20.9978C20.8493 20.8113 20.8815 20.6261 20.9456 20.451C21.0059 20.285 21.0967 20.1317 21.2133 19.9991C21.3322 19.8682 21.4769 19.7636 21.6383 19.6916C21.8135 19.6172 22.0019 19.5789 22.1923 19.5789C22.3826 19.5789 22.571 19.6172 22.7462 19.6916C22.9076 19.7636 23.0523 19.8682 23.1712 19.9991C23.2888 20.1315 23.3806 20.2847 23.4418 20.451C23.5059 20.6261 23.538 20.8113 23.5367 20.9978C23.5351 21.1866 23.502 21.3738 23.4389 21.5517ZM3.64525 11.7456H2.8335V17.2451H3.64525C4.00635 17.2451 4.36392 17.1739 4.69753 17.0357C5.03115 16.8976 5.33428 16.695 5.58961 16.4397C5.84495 16.1843 6.0475 15.8812 6.18568 15.5476C6.32387 15.214 6.395 14.8564 6.395 14.4953C6.395 14.1342 6.32387 13.7766 6.18568 13.443C6.0475 13.1094 5.84495 12.8063 5.58961 12.5509C5.33428 12.2956 5.03115 12.0931 4.69753 11.9549C4.36392 11.8167 4.00635 11.7456 3.64525 11.7456ZM19.3901 17.2507C19.7673 17.251 20.1362 17.1394 20.45 16.93C20.7638 16.7205 21.0084 16.4227 21.1529 16.0743C21.2974 15.7258 21.3353 15.3423 21.2618 14.9722C21.1882 14.6022 21.0066 14.2623 20.7398 13.9956C20.4731 13.7288 20.1332 13.5472 19.7632 13.4736C19.3931 13.4001 19.0096 13.438 18.6611 13.5825C18.3126 13.727 18.0149 13.9716 17.8054 14.2854C17.596 14.5992 17.4844 14.9681 17.4847 15.3453C17.485 15.8505 17.6859 16.335 18.0432 16.6922C18.4004 17.0495 18.8849 17.2503 19.3901 17.2507ZM19.3901 14.1893C19.6173 14.1893 19.8394 14.2567 20.0284 14.3829C20.2173 14.5092 20.3646 14.6886 20.4515 14.8986C20.5385 15.1085 20.5613 15.3395 20.5169 15.5624C20.4726 15.7852 20.3632 15.99 20.2025 16.1506C20.0418 16.3113 19.8371 16.4207 19.6142 16.4651C19.3914 16.5094 19.1603 16.4866 18.9504 16.3997C18.7405 16.3127 18.561 16.1655 18.4348 15.9765C18.3085 15.7876 18.2412 15.5655 18.2412 15.3382C18.2427 15.034 18.3642 14.7426 18.5793 14.5275C18.7945 14.3123 19.0858 14.1908 19.3901 14.1893ZM10.6577 17.2451V11.7456H9.84741C9.48631 11.7456 9.12875 11.8167 8.79513 11.9549C8.46151 12.0931 8.15838 12.2956 7.90305 12.5509C7.64771 12.8063 7.44516 13.1094 7.30698 13.443C7.16879 13.7766 7.09766 14.1342 7.09766 14.4953C7.09766 14.8564 7.16879 15.214 7.30698 15.5476C7.44516 15.8812 7.64771 16.1843 7.90305 16.4397C8.15838 16.695 8.46151 16.8976 8.79513 17.0357C9.12875 17.1739 9.48631 17.2451 9.84741 17.2451H10.6577ZM7.98733 19.1434L6.37516 22.8607H6.95316L7.32575 21.9484H9.09091L9.46916 22.8607H10.0585L8.4605 19.1434H7.98733ZM7.5085 21.4908L8.20691 19.7469L8.89966 21.4908H7.5085Z" fill="#121212"/>
</svg>
