<svg width="26" height="26" viewBox="0 0 26 26" fill="none" xmlns="http://www.w3.org/2000/svg">
<path d="M7.16733 15.9162H8.125V13.7495H10.959V15.9162H11.9167V10.0835H10.9579V12.7918H8.125V10.0835H7.16625L7.16733 15.9162ZM14.0833 15.9162H17.667C17.9877 15.9162 18.2621 15.8021 18.4903 15.5738C18.7186 15.3456 18.8327 15.0712 18.8327 14.7505V11.2503C18.8327 10.9296 18.7186 10.6548 18.4903 10.4258C18.2621 10.1976 17.9877 10.0835 17.667 10.0835H14.0833V15.9162ZM15.0421 14.9585V11.0412H17.5413C17.6251 11.0412 17.7017 11.0762 17.771 11.1463C17.8403 11.2156 17.875 11.2918 17.875 11.3748V14.6248C17.875 14.7086 17.8403 14.7852 17.771 14.8545C17.7017 14.9238 17.6251 14.9585 17.5413 14.9585H15.0421ZM4.99958 20.5832C4.50125 20.5832 4.08525 20.4163 3.75158 20.0827C3.41792 19.749 3.25072 19.3323 3.25 18.8325V7.16717C3.25 6.66812 3.41719 6.25175 3.75158 5.91809C4.08597 5.58442 4.50197 5.41723 4.99958 5.4165H21.0004C21.4988 5.4165 21.9148 5.5837 22.2484 5.91809C22.5821 6.25248 22.7493 6.66884 22.75 7.16717V18.8336C22.75 19.3319 22.5828 19.7483 22.2484 20.0827C21.914 20.4171 21.498 20.5839 21.0004 20.5832H4.99958ZM4.99958 19.4998H21.0004C21.1665 19.4998 21.3193 19.4305 21.4587 19.2918C21.5981 19.1532 21.6674 19.0001 21.6667 18.8325V7.16717C21.6667 7.00034 21.5973 6.84723 21.4587 6.70784C21.32 6.56845 21.1673 6.49911 21.0004 6.49984H4.99958C4.83347 6.49984 4.68072 6.56917 4.54133 6.70784C4.40194 6.8465 4.33261 6.99962 4.33333 7.16717V18.8336C4.33333 18.9997 4.40267 19.1524 4.54133 19.2918C4.68 19.4312 4.83275 19.5006 4.99958 19.4998Z" fill="#121212"/>
</svg>
