<svg width="16" height="16" viewBox="0 0 16 16" fill="none" xmlns="http://www.w3.org/2000/svg">
<path d="M11.5 1C14.03 1 16 2.92 16 5.62C16 8.87 13.19 12.05 8.63 14.77C8.447 14.885 8.183 15 8 15C7.827 15 7.553 14.885 7.37 14.77C2.81 12.05 0 8.87 0 5.62C0 2.92 1.97 1 4.5 1C6.1 1 7.26 1.834 8 3.07C8.742 1.82 9.9 1 11.5 1ZM11.5 2C10.36 2 9.48 2.544 8.86 3.58L7.998 5.03L7.141 3.58C6.531 2.55 5.641 2 4.501 2C2.491 2 1.001 3.5 1.001 5.62C1.001 8.32 3.411 11.25 7.901 13.92L7.967 13.957L7.997 13.973L8.075 13.933L8.117 13.908C12.587 11.238 14.997 8.318 14.997 5.618C14.997 3.498 13.507 1.998 11.497 1.998L11.5 2Z" fill="#121212"/>
</svg>
