<svg width="34" height="34" viewBox="0 0 34 34" fill="none" xmlns="http://www.w3.org/2000/svg">
<path d="M2.83301 22.6667C2.83301 18.6604 2.83301 16.6558 4.07826 15.412C5.32209 14.1667 7.32668 14.1667 11.333 14.1667H22.6663C26.6727 14.1667 28.6773 14.1667 29.9211 15.412C31.1663 16.6558 31.1663 18.6604 31.1663 22.6667C31.1663 26.6731 31.1663 28.6777 29.9211 29.9215C28.6773 31.1667 26.6727 31.1667 22.6663 31.1667H11.333C7.32668 31.1667 5.32209 31.1667 4.07826 29.9215C2.83301 28.6777 2.83301 26.6731 2.83301 22.6667Z" stroke="#F9F9F9" stroke-width="1.5"/>
<path d="M8.5 14.1667V11.3334C8.5 9.07903 9.39553 6.91702 10.9896 5.32297C12.5837 3.72891 14.7457 2.83337 17 2.83337C19.2543 2.83337 21.4163 3.72891 23.0104 5.32297C24.6045 6.91702 25.5 9.07903 25.5 11.3334V14.1667" stroke="#F9F9F9" stroke-width="1.5" stroke-linecap="round"/>
</svg>
