<svg width="20" height="20" viewBox="0 0 20 20" fill="none" xmlns="http://www.w3.org/2000/svg">
<path d="M1.6665 13.333C1.6665 10.9763 1.6665 9.79717 2.399 9.06551C3.13067 8.33301 4.30984 8.33301 6.6665 8.33301H13.3332C15.6898 8.33301 16.869 8.33301 17.6007 9.06551C18.3332 9.79717 18.3332 10.9763 18.3332 13.333C18.3332 15.6897 18.3332 16.8688 17.6007 17.6005C16.869 18.333 15.6898 18.333 13.3332 18.333H6.6665C4.30984 18.333 3.13067 18.333 2.399 17.6005C1.6665 16.8688 1.6665 15.6897 1.6665 13.333Z" stroke="#121212" stroke-width="1.5"/>
<path d="M5 8.33317V6.6665C5 5.34042 5.52678 4.06865 6.46447 3.13097C7.40215 2.19329 8.67392 1.6665 10 1.6665C11.3261 1.6665 12.5979 2.19329 13.5355 3.13097C14.4732 4.06865 15 5.34042 15 6.6665V8.33317" stroke="#121212" stroke-width="1.5" stroke-linecap="round"/>
</svg>
