<svg width="15" height="18" viewBox="0 0 15 18" fill="none" xmlns="http://www.w3.org/2000/svg">
<path fill-rule="evenodd" clip-rule="evenodd" d="M11.787 0.291735C12.95 -0.475265 14.5 0.359735 14.5 1.75274V16.0387C14.5 17.4327 12.95 18.2667 11.787 17.4997L5.787 13.5447C5.74641 13.5177 5.69879 13.5031 5.65 13.5027H2.75C2.02065 13.5027 1.32118 13.213 0.805456 12.6973C0.289731 12.1816 0 11.4821 0 10.7527V7.03873C0 6.6776 0.0711308 6.32 0.209331 5.98636C0.347532 5.65271 0.550095 5.34955 0.805456 5.09419C1.06082 4.83883 1.36398 4.63627 1.69762 4.49807C2.03127 4.35987 2.38886 4.28874 2.75 4.28874H5.65C5.69903 4.2889 5.74702 4.27464 5.788 4.24774L11.787 0.291735Z" fill="white"/>
</svg>
