<svg width="50" height="50" viewBox="0 0 50 50" fill="none" xmlns="http://www.w3.org/2000/svg">
<path d="M16.2502 12.5002C15.9576 12.5001 15.6743 12.6026 15.4496 12.7899C15.2248 12.9772 15.0729 13.2374 15.0202 13.5252L15.0002 13.7502V36.2502C14.9996 36.5625 15.116 36.8638 15.3265 37.0946C15.5369 37.3254 15.8262 37.4691 16.1373 37.4973C16.4483 37.5256 16.7587 37.4363 17.0073 37.2471C17.2558 37.0579 17.4246 36.7825 17.4802 36.4752L17.5002 36.2502V13.7502C17.5002 13.4186 17.3685 13.1007 17.1341 12.8663C16.8997 12.6319 16.5817 12.5002 16.2502 12.5002ZM35.8852 12.8652C35.6781 12.6585 35.405 12.531 35.1135 12.505C34.8221 12.4789 34.5307 12.556 34.2902 12.7227L34.1152 12.8652L22.8652 24.1152C22.6585 24.3223 22.5311 24.5954 22.505 24.8868C22.479 25.1783 22.556 25.4697 22.7227 25.7102L22.8652 25.8852L34.1152 37.1352C34.3357 37.3566 34.6311 37.4875 34.9433 37.5019C35.2554 37.5164 35.5617 37.4134 35.8017 37.2132C36.0417 37.0131 36.198 36.7303 36.2398 36.4206C36.2816 36.1109 36.206 35.7968 36.0277 35.5402L35.8852 35.3652L25.5177 25.0002L35.8852 14.6352C36.0016 14.519 36.094 14.3811 36.157 14.2292C36.22 14.0774 36.2524 13.9146 36.2524 13.7502C36.2524 13.5857 36.22 13.4229 36.157 13.2711C36.094 13.1192 36.0016 12.9813 35.8852 12.8652Z" fill="#F9F9F9"/>
</svg>
