<svg width="20" height="20" viewBox="0 0 20 20" fill="none" xmlns="http://www.w3.org/2000/svg">
<path d="M3 4.25202C3 3.25202 4.116 2.65702 4.947 3.21402L13.446 8.92102C13.6157 9.03494 13.7549 9.18874 13.8514 9.36894C13.9478 9.54915 13.9986 9.75026 13.9993 9.95466C14 10.1591 13.9506 10.3605 13.8553 10.5414C13.7601 10.7222 13.6219 10.877 13.453 10.992L4.953 16.785C4.76515 16.9128 4.54603 16.9869 4.31919 16.9995C4.09235 17.0121 3.86638 16.9626 3.66556 16.8564C3.46473 16.7502 3.29666 16.5912 3.17939 16.3966C3.06212 16.2021 3.00011 15.9792 3 15.752V4.25202ZM17 3.50002C17 3.36741 16.9473 3.24023 16.8536 3.14647C16.7598 3.0527 16.6326 3.00002 16.5 3.00002C16.3674 3.00002 16.2402 3.0527 16.1464 3.14647C16.0527 3.24023 16 3.36741 16 3.50002V16.5C16 16.6326 16.0527 16.7598 16.1464 16.8536C16.2402 16.9473 16.3674 17 16.5 17C16.6326 17 16.7598 16.9473 16.8536 16.8536C16.9473 16.7598 17 16.6326 17 16.5V3.50002Z" fill="#F9F9F9"/>
</svg>
