<svg width="59" height="59" viewBox="0 0 59 59" fill="none" xmlns="http://www.w3.org/2000/svg">
<path d="M4.9165 14.7498C4.9165 10.1134 4.9165 7.79767 6.35709 6.35709C7.79767 4.9165 10.1134 4.9165 14.7498 4.9165C19.3862 4.9165 21.702 4.9165 23.1426 6.35709C24.5832 7.79767 24.5832 10.1134 24.5832 14.7498V44.2498C24.5832 48.8862 24.5832 51.202 23.1426 52.6426C21.702 54.0832 19.3862 54.0832 14.7498 54.0832C10.1134 54.0832 7.79767 54.0832 6.35709 52.6426C4.9165 51.202 4.9165 48.8862 4.9165 44.2498V14.7498ZM34.4165 14.7498C34.4165 10.1134 34.4165 7.79767 35.8571 6.35709C37.2977 4.9165 39.6134 4.9165 44.2498 4.9165C48.8862 4.9165 51.202 4.9165 52.6426 6.35709C54.0832 7.79767 54.0832 10.1134 54.0832 14.7498V44.2498C54.0832 48.8862 54.0832 51.202 52.6426 52.6426C51.202 54.0832 48.8862 54.0832 44.2498 54.0832C39.6134 54.0832 37.2977 54.0832 35.8571 52.6426C34.4165 51.202 34.4165 48.8862 34.4165 44.2498V14.7498Z" fill="#F9F9F9"/>
</svg>
