<svg width="58" height="58" viewBox="0 0 58 58" fill="none" xmlns="http://www.w3.org/2000/svg">
<path d="M12.0834 7.25008V50.7501C12.0848 51.1905 12.2063 51.6222 12.4348 51.9987C12.6632 52.3752 12.9901 52.6823 13.3801 52.8869C13.7701 53.0915 14.2086 53.1858 14.6482 53.1597C15.0878 53.1337 15.5121 52.9882 15.8752 52.739L47.2919 30.989C48.5944 30.0876 48.5944 27.9174 47.2919 27.0136L15.8752 5.26358C15.5128 5.01183 15.0884 4.86419 14.648 4.83672C14.2076 4.80924 13.7681 4.90298 13.3773 5.10774C12.9865 5.31251 12.6592 5.62047 12.4311 5.99816C12.203 6.37586 12.0827 6.80885 12.0834 7.25008Z" fill="#F9F9F9"/>
</svg>
