<svg width="24" height="24" viewBox="0 0 24 24" fill="none" xmlns="http://www.w3.org/2000/svg">
<path d="M4.5 5.385C5.43765 4.32004 6.59161 3.46727 7.8849 2.88356C9.17819 2.29986 10.5811 1.99864 12 2C17.523 2 22 6.477 22 12C22 17.523 17.523 22 12 22C6.477 22 2 17.523 2 12C2 11.522 2.03267 11.053 2.098 10.593C2.12384 10.4258 2.2094 10.2735 2.33882 10.1645C2.46825 10.0555 2.6328 9.99705 2.802 10C3.278 10 3.628 10.446 3.568 10.919C3.30827 12.9454 3.78704 14.9975 4.91666 16.6997C6.04629 18.4019 7.7512 19.6403 9.71928 20.1882C11.6874 20.7362 13.787 20.5569 15.6337 19.6834C17.4804 18.8098 18.9508 17.3003 19.7755 15.4313C20.6003 13.5622 20.7243 11.4586 20.1249 9.50562C19.5255 7.55261 18.2427 5.88082 16.5114 4.79629C14.7801 3.71177 12.7161 3.28707 10.6973 3.59994C8.67844 3.91281 6.83982 4.94232 5.518 6.5H7.25C7.44891 6.5 7.63968 6.57902 7.78033 6.71967C7.92098 6.86032 8 7.05109 8 7.25C8 7.44891 7.92098 7.63968 7.78033 7.78033C7.63968 7.92098 7.44891 8 7.25 8H3.75C3.55109 8 3.36032 7.92098 3.21967 7.78033C3.07902 7.63968 3 7.44891 3 7.25V3.75C3 3.55109 3.07902 3.36032 3.21967 3.21967C3.36032 3.07902 3.55109 3 3.75 3C3.94891 3 4.13968 3.07902 4.28033 3.21967C4.42098 3.36032 4.5 3.55109 4.5 3.75V5.385ZM11.228 8.19C10.9997 8.06327 10.7423 7.99833 10.4812 8.00161C10.2201 8.00489 9.96434 8.07627 9.73929 8.2087C9.51424 8.34112 9.32766 8.53 9.198 8.75665C9.06834 8.98331 9.00009 9.23988 9 9.501V14.5C9.00009 14.7611 9.06834 15.0177 9.198 15.2443C9.32766 15.471 9.51424 15.6599 9.73929 15.7923C9.96434 15.9247 10.2201 15.9961 10.4812 15.9994C10.7423 16.0027 10.9997 15.9377 11.228 15.811L15.727 13.313C15.961 13.1831 16.1559 12.993 16.2917 12.7624C16.4274 12.5318 16.499 12.2691 16.499 12.0015C16.499 11.7339 16.4274 11.4712 16.2917 11.2406C16.1559 11.01 15.961 10.8199 15.727 10.69L11.228 8.19Z" fill="black"/>
</svg>
