<svg width="24" height="24" viewBox="0 0 24 24" fill="none" xmlns="http://www.w3.org/2000/svg">
<path d="M9.53862 15.23C7.93995 15.23 6.58495 14.6747 5.47362 13.564C4.36295 12.454 3.80762 11.0994 3.80762 9.50002C3.80762 7.90069 4.36295 6.54569 5.47362 5.43502C6.58428 4.32435 7.93928 3.76935 9.53862 3.77002C11.1379 3.77069 12.4926 4.32602 13.6026 5.43602C14.7126 6.54602 15.268 7.90069 15.2686 9.50002C15.2686 10.1947 15.1456 10.867 14.8996 11.517C14.6536 12.167 14.3303 12.723 13.9296 13.185L19.8386 19.092C19.932 19.1854 19.982 19.3004 19.9886 19.437C19.9946 19.5724 19.9446 19.6934 19.8386 19.8C19.732 19.9067 19.614 19.96 19.4846 19.96C19.3553 19.96 19.2373 19.9067 19.1306 19.8L13.2226 13.892C12.7226 14.318 12.1476 14.6477 11.4976 14.881C10.8476 15.1144 10.1943 15.231 9.53762 15.231M9.53762 14.231C10.8643 14.231 11.9846 13.7744 12.8986 12.861C13.8119 11.9477 14.2686 10.8274 14.2686 9.50002C14.2686 8.17269 13.8123 7.05269 12.8996 6.14002C11.9869 5.22735 10.867 4.77069 9.53962 4.77002C8.21228 4.77002 7.09195 5.22669 6.17862 6.14002C5.26528 7.05335 4.80828 8.17335 4.80762 9.50002C4.80695 10.8267 5.26362 11.9467 6.17762 12.86C7.09162 13.7734 8.21162 14.23 9.53762 14.23" fill="#F9F9F9"/>
</svg>
