<svg width="30" height="30" viewBox="0 0 30 30" fill="none" xmlns="http://www.w3.org/2000/svg">
<path d="M20.7625 26.25C19.9342 26.25 19.2312 25.9604 18.6537 25.3813C18.0771 24.8013 17.7887 24.0971 17.7887 23.2687C17.7887 23.1437 17.8437 22.8283 17.9537 22.3225L8.9575 16.9812C8.6875 17.2929 8.35708 17.5375 7.96625 17.715C7.57542 17.8925 7.15583 17.9813 6.7075 17.9813C5.88583 17.9813 5.1875 17.6887 4.6125 17.1037C4.0375 16.5187 3.75 15.8175 3.75 15C3.75 14.1825 4.0375 13.4813 4.6125 12.8963C5.1875 12.3113 5.88583 12.0187 6.7075 12.0187C7.155 12.0187 7.57458 12.1075 7.96625 12.285C8.35792 12.4625 8.68833 12.7075 8.9575 13.02L17.955 7.70125C17.8967 7.53958 17.8546 7.37917 17.8287 7.22C17.8021 7.06 17.7887 6.89667 17.7887 6.73C17.7887 5.9025 18.0792 5.19875 18.66 4.61875C19.2408 4.03958 19.9458 3.75 20.775 3.75C21.6042 3.75 22.3075 4.04042 22.885 4.62125C23.4625 5.20208 23.7508 5.90708 23.75 6.73625C23.7492 7.56542 23.4596 8.26875 22.8812 8.84625C22.3029 9.42375 21.5987 9.71208 20.7687 9.71125C20.3171 9.71125 19.9004 9.61875 19.5187 9.43375C19.1371 9.24875 18.8121 9 18.5437 8.6875L9.545 14.0287C9.60333 14.1904 9.64542 14.3513 9.67125 14.5113C9.69792 14.6704 9.71125 14.8333 9.71125 15C9.71125 15.1667 9.69792 15.3296 9.67125 15.4887C9.64458 15.6479 9.60292 15.8088 9.54625 15.9713L18.5437 21.3125C18.8129 21 19.1379 20.7512 19.5187 20.5662C19.9004 20.3812 20.3171 20.2888 20.7687 20.2888C21.5971 20.2888 22.3012 20.5788 22.8812 21.1588C23.4604 21.7404 23.75 22.4458 23.75 23.275C23.75 24.1042 23.4596 24.8075 22.8787 25.385C22.2979 25.9625 21.5917 26.2508 20.7625 26.25ZM20.7687 25C21.2596 25 21.6708 24.8342 22.0025 24.5025C22.3342 24.1708 22.5 23.76 22.5 23.27C22.5 22.78 22.3342 22.3687 22.0025 22.0362C21.6708 21.7037 21.26 21.5379 20.77 21.5388C20.28 21.5396 19.8687 21.7054 19.5362 22.0362C19.2037 22.3671 19.0379 22.7779 19.0387 23.2687C19.0396 23.7596 19.2054 24.1708 19.5362 24.5025C19.8671 24.8342 20.2771 25 20.7687 25ZM6.7075 16.73C7.20417 16.73 7.62083 16.5625 7.9575 16.2275C8.29333 15.8917 8.46125 15.4825 8.46125 15C8.46125 14.5175 8.29333 14.1083 7.9575 13.7725C7.62167 13.4367 7.205 13.2687 6.7075 13.2687C6.22333 13.2687 5.81792 13.4367 5.49125 13.7725C5.16375 14.1083 5 14.5175 5 15C5 15.4825 5.16375 15.8917 5.49125 16.2275C5.81875 16.5633 6.22417 16.7312 6.7075 16.7313M21.9962 7.9625C22.3321 7.63167 22.5 7.22083 22.5 6.73C22.5 6.24 22.3342 5.82917 22.0025 5.4975C21.6708 5.16583 21.26 5 20.77 5C20.28 5 19.8687 5.16583 19.5362 5.4975C19.2037 5.82917 19.0379 6.24042 19.0387 6.73125C19.0396 7.22208 19.2075 7.63292 19.5425 7.96375C19.8775 8.29458 20.2867 8.46042 20.77 8.46125C21.2533 8.46208 21.6621 8.295 21.9962 7.9625Z" fill="#121212"/>
</svg>
