<svg width="24" height="24" viewBox="0 0 24 24" fill="none" xmlns="http://www.w3.org/2000/svg">
<g clip-path="url(#clip0_1237_405)">
<path fill-rule="evenodd" clip-rule="evenodd" d="M16.9701 6.97032C17.1107 6.82987 17.3013 6.75098 17.5001 6.75098C17.6988 6.75098 17.8895 6.82987 18.0301 6.97032L18.0321 6.97232L18.0351 6.97432L18.0421 6.98132L18.0621 7.00132L18.1241 7.07032C18.1741 7.12732 18.2441 7.20832 18.3251 7.31132C19.2491 8.51229 19.7501 9.98504 19.7501 11.5003C19.7501 13.0156 19.2491 14.4883 18.3251 15.6893C18.2413 15.7962 18.1533 15.8996 18.0611 15.9993L18.0411 16.0193L18.0351 16.0263L18.0321 16.0283L18.0311 16.0293L17.5211 15.5213L18.0311 16.0313C17.8904 16.172 17.6996 16.2511 17.5006 16.2511C17.3016 16.2511 17.1108 16.172 16.9701 16.0313C16.8294 15.8906 16.7504 15.6998 16.7504 15.5008C16.7504 15.3018 16.8294 15.111 16.9701 14.9703L16.9691 14.9713L16.9671 14.9723L16.9721 14.9673L17.0051 14.9313C17.0371 14.8966 17.0834 14.841 17.1441 14.7643C17.7767 13.9384 18.1558 12.9466 18.2354 11.9093C18.3149 10.872 18.0914 9.83398 17.5921 8.92132C17.4617 8.68112 17.3119 8.45202 17.1441 8.23632C17.0898 8.16614 17.0324 8.09841 16.9721 8.03332L16.9671 8.02832C16.8276 7.88738 16.7497 7.69696 16.7502 7.4987C16.7508 7.30044 16.8299 7.11046 16.9701 6.97032Z" fill="white"/>
<path fill-rule="evenodd" clip-rule="evenodd" d="M19.97 3.97023C20.1106 3.82978 20.3012 3.75089 20.5 3.75089C20.6988 3.75089 20.8894 3.82978 21.03 3.97023L21.033 3.97223L21.036 3.97523L21.045 3.98523C21.0884 4.02798 21.1297 4.0727 21.169 4.11923C21.248 4.20823 21.357 4.33723 21.485 4.50423C21.742 4.83723 22.079 5.32723 22.414 5.96423C23.084 7.23823 23.75 9.10723 23.75 11.5002C23.75 13.8932 23.084 15.7622 22.414 17.0372C22.1471 17.5498 21.8363 18.0383 21.485 18.4972C21.3468 18.6769 21.2 18.8498 21.045 19.0152L21.035 19.0252L21.033 19.0282L21.031 19.0292L20.5 18.5002L21.03 19.0302C20.8886 19.1669 20.6992 19.2426 20.5025 19.241C20.3059 19.2394 20.1178 19.1606 19.9786 19.0216C19.8395 18.8826 19.7605 18.6945 19.7587 18.4979C19.7569 18.3012 19.8324 18.1117 19.969 17.9702L19.983 17.9562L20.046 17.8862C20.1053 17.8209 20.1887 17.7196 20.296 17.5822C20.508 17.3062 20.796 16.8892 21.086 16.3382C21.666 15.2382 22.25 13.6072 22.25 11.5002C22.25 9.39323 21.666 7.76223 21.086 6.66223C20.8583 6.22596 20.594 5.80981 20.296 5.41823C20.1968 5.28937 20.0924 5.1646 19.983 5.04423L19.969 5.03023C19.8285 4.8896 19.7497 4.69898 19.7497 4.50023C19.7497 4.30148 19.8295 4.11085 19.97 3.97023ZM12.037 3.39623C13.2 2.62923 14.75 3.46423 14.75 4.85723V19.1432C14.75 20.5372 13.2 21.3712 12.037 20.6042L6.037 16.6492C5.99641 16.6222 5.94879 16.6076 5.9 16.6072H3C2.27065 16.6072 1.57118 16.3175 1.05546 15.8018C0.539731 15.286 0.25 14.5866 0.25 13.8572V10.1432C0.25 9.78209 0.321131 9.42449 0.459331 9.09085C0.597532 8.7572 0.800095 8.45405 1.05546 8.19868C1.31082 7.94332 1.61398 7.74076 1.94762 7.60256C2.28127 7.46436 2.63886 7.39323 3 7.39323H5.9C5.94903 7.39339 5.99702 7.37913 6.038 7.35223L12.037 3.39623Z" fill="white"/>
</g>
<defs>
<clipPath id="clip0_1237_405">
<rect width="24" height="24" fill="white"/>
</clipPath>
</defs>
</svg>
