<svg width="20" height="20" viewBox="0 0 20 20" fill="none" xmlns="http://www.w3.org/2000/svg">
<path d="M2.87004 9.16487C2.78267 9.26621 2.73604 9.39638 2.73918 9.53014C2.74232 9.6639 2.79501 9.79174 2.88704 9.88887C2.93202 9.93587 2.98627 9.97303 3.04636 9.99798C3.10645 10.0229 3.17106 10.0351 3.23611 10.0338C3.30116 10.0325 3.36523 10.0177 3.42426 9.99034C3.48329 9.96297 3.53599 9.92366 3.57904 9.87487C4.49757 8.79277 5.00125 7.41924 5.00004 5.99987C5.00004 4.52287 4.46604 3.16987 3.58004 2.12487C3.53699 2.07608 3.48429 2.03676 3.42526 2.0094C3.36623 1.98204 3.30216 1.96723 3.23711 1.96592C3.17206 1.9646 3.10745 1.9768 3.04736 2.00176C2.98727 2.02671 2.93302 2.06386 2.88804 2.11087C2.79587 2.20787 2.743 2.33564 2.73967 2.4694C2.73635 2.60317 2.7828 2.73341 2.87004 2.83487C3.60205 3.72707 4.00148 4.8458 4.00004 5.99987C4.00148 7.15393 3.60205 8.27267 2.87004 9.16487ZM1.47304 8.47487C1.66804 8.66987 1.98804 8.67187 2.15704 8.45387C2.68404 7.77587 2.99804 6.92387 2.99804 5.99987C2.99804 5.07587 2.68404 4.22387 2.15804 3.54587C1.98804 3.32787 1.66804 3.32987 1.47304 3.52587C1.27804 3.71987 1.28204 4.03587 1.44304 4.25987C1.79304 4.74987 1.99804 5.35087 1.99804 5.99987C1.99804 6.64887 1.79204 7.24987 1.44204 7.73987C1.28204 7.96487 1.27804 8.27987 1.47304 8.47487ZM10 1.99987C8.93917 1.99987 7.92175 2.4213 7.17161 3.17144C6.42146 3.92159 6.00004 4.939 6.00004 5.99987C6.00004 7.06073 6.42146 8.07815 7.17161 8.8283C7.92175 9.57844 8.93917 9.99987 10 9.99987C11.0609 9.99987 12.0783 9.57844 12.8285 8.8283C13.5786 8.07815 14 7.06073 14 5.99987C14 4.939 13.5786 3.92159 12.8285 3.17144C12.0783 2.4213 11.0609 1.99987 10 1.99987ZM7.00004 5.99987C7.00004 5.20422 7.31611 4.44116 7.87872 3.87855C8.44133 3.31594 9.20439 2.99987 10 2.99987C10.7957 2.99987 11.5587 3.31594 12.1214 3.87855C12.684 4.44116 13 5.20422 13 5.99987C13 6.79552 12.684 7.55858 12.1214 8.12119C11.5587 8.6838 10.7957 8.99987 10 8.99987C9.20439 8.99987 8.44133 8.6838 7.87872 8.12119C7.31611 7.55858 7.00004 6.79552 7.00004 5.99987ZM5.00904 10.9999C4.74564 10.9987 4.4846 11.0495 4.24091 11.1495C3.99721 11.2495 3.77567 11.3966 3.589 11.5825C3.40233 11.7683 3.25421 11.9892 3.15313 12.2324C3.05206 12.4757 3.00003 12.7365 3.00004 12.9999C3.00004 14.6909 3.83304 15.9659 5.13504 16.7969C6.41704 17.6139 8.14504 17.9999 10 17.9999C11.855 17.9999 13.583 17.6139 14.865 16.7969C16.167 15.9669 17 14.6899 17 12.9999C17 12.4694 16.7893 11.9607 16.4142 11.5857C16.0392 11.2106 15.5305 10.9999 15 10.9999H5.00904ZM4.00004 12.9999C4.00004 12.4469 4.44804 11.9999 5.00904 11.9999H15C15.2653 11.9999 15.5196 12.1052 15.7071 12.2928C15.8947 12.4803 16 12.7347 16 12.9999C16 14.3089 15.378 15.2839 14.327 15.9529C13.257 16.6359 11.735 16.9999 10 16.9999C8.26504 16.9999 6.74304 16.6359 5.67304 15.9529C4.62304 15.2829 4.00004 14.3099 4.00004 12.9999ZM16.419 2.12487C15.5012 3.20724 14.9983 4.58075 15 5.99987C15 7.47687 15.534 8.82987 16.419 9.87487C16.4621 9.92366 16.5148 9.96297 16.5738 9.99034C16.6328 10.0177 16.6969 10.0325 16.762 10.0338C16.827 10.0351 16.8916 10.0229 16.9517 9.99798C17.0118 9.97303 17.0661 9.93587 17.111 9.88887C17.2032 9.79187 17.2561 9.6641 17.2594 9.53033C17.2627 9.39657 17.2163 9.26633 17.129 9.16487C16.3974 8.27253 15.9983 7.15381 16 5.99987C16 4.79987 16.423 3.69687 17.129 2.83487C17.2163 2.73341 17.2627 2.60317 17.2594 2.4694C17.2561 2.33564 17.2032 2.20787 17.111 2.11087C17.0661 2.06386 17.0118 2.02671 16.9517 2.00176C16.8916 1.9768 16.827 1.9646 16.762 1.96592C16.6969 1.96723 16.6328 1.98204 16.5738 2.0094C16.5148 2.03676 16.4621 2.07608 16.419 2.12487ZM17.841 3.54587C18.011 3.32787 18.33 3.32987 18.525 3.52587C18.72 3.71987 18.716 4.03587 18.556 4.25987C18.1943 4.76797 18 5.37617 18 5.99987C18 6.64887 18.206 7.24987 18.556 7.73987C18.716 7.96487 18.72 8.27987 18.526 8.47487C18.33 8.66987 18.01 8.67187 17.841 8.45387C17.2959 7.75201 17 6.88858 17 5.99987C17 5.07487 17.315 4.22387 17.841 3.54587Z" fill="#121212"/>
</svg>
