<svg width="24" height="24" viewBox="0 0 24 24" fill="none" xmlns="http://www.w3.org/2000/svg">
<g clip-path="url(#clip0_1384_372)">
<path d="M12.002 17.2471V23.2471M12.002 0.74707V6.74707M6.75195 11.9971H0.751953M23.252 11.9971H17.252M3.75195 11.9981C3.75195 14.1861 4.62115 16.2845 6.16832 17.8317C7.7155 19.3789 9.81392 20.2481 12.002 20.2481C14.19 20.2481 16.2884 19.3789 17.8356 17.8317C19.3828 16.2845 20.252 14.1861 20.252 11.9981C20.252 9.81003 19.3828 7.71161 17.8356 6.16444C16.2884 4.61726 14.19 3.74807 12.002 3.74807C9.81392 3.74807 7.7155 4.61726 6.16832 6.16444C4.62115 7.71161 3.75195 9.81003 3.75195 11.9981Z" stroke="white" stroke-width="1.5" stroke-linecap="round" stroke-linejoin="round"/>
</g>
<defs>
<clipPath id="clip0_1384_372">
<rect width="24" height="24" fill="white"/>
</clipPath>
</defs>
</svg>
