<svg width="19" height="19" viewBox="0 0 19 19" fill="none" xmlns="http://www.w3.org/2000/svg">
<path d="M6.33325 7.91667V6.33333C6.33325 4.14754 7.31413 2.375 9.49992 2.375C11.1577 2.375 12.1227 3.39467 12.4924 4.84025M2.77075 14.0917V10.45C2.77075 9.56333 2.77075 9.12 2.94334 8.78196C3.095 8.48375 3.33722 8.24125 3.63525 8.08925C3.97408 7.91746 4.41742 7.91746 5.30408 7.91746H13.6957C14.5824 7.91746 15.0257 7.91746 15.3646 8.08925C15.6625 8.24105 15.9047 8.48326 16.0565 8.78117C16.2291 9.12 16.2291 9.56333 16.2291 10.45V14.0917C16.2291 14.9783 16.2291 15.4217 16.0565 15.7605C15.9047 16.0584 15.6625 16.3006 15.3646 16.4524C15.0257 16.625 14.5824 16.625 13.6957 16.625H5.30408C4.41742 16.625 3.97408 16.625 3.63525 16.4524C3.33734 16.3006 3.09513 16.0584 2.94334 15.7605C2.77075 15.4225 2.77075 14.9791 2.77075 14.0917Z" stroke="#F9F9F9" stroke-width="1.5" stroke-linecap="round" stroke-linejoin="round"/>
</svg>
