<svg width="21" height="21" viewBox="0 0 21 21" fill="none" xmlns="http://www.w3.org/2000/svg">
<path d="M4.59375 18.375V17.7188C4.59375 16.3264 5.14687 14.991 6.13144 14.0064C7.11601 13.0219 8.45136 12.4688 9.84375 12.4688H11.1562C12.5486 12.4688 13.884 13.0219 14.8686 14.0064C15.8531 14.991 16.4062 16.3264 16.4062 17.7188V18.375M13.7812 6.5625C13.7812 7.43274 13.4355 8.26734 12.8202 8.88269C12.2048 9.49805 11.3702 9.84375 10.5 9.84375C9.62976 9.84375 8.79516 9.49805 8.17981 8.88269C7.56445 8.26734 7.21875 7.43274 7.21875 6.5625C7.21875 5.69226 7.56445 4.85766 8.17981 4.24231C8.79516 3.62695 9.62976 3.28125 10.5 3.28125C11.3702 3.28125 12.2048 3.62695 12.8202 4.24231C13.4355 4.85766 13.7812 5.69226 13.7812 6.5625Z" stroke="#121212"/>
</svg>
